<?xml version="1.0" ?><!-- Uploaded to: SVG Repo, www.svgrepo.com, Generator: SVG Repo Mixer Tools -->
<svg fill="#000000" width="800px" height="800px" viewBox="0 0 32 32" data-name="Layer 6" id="Layer_6" xmlns="http://www.w3.org/2000/svg"><title/><path d="M22.43,22a0.5,0.5,0,0,0-.5.5v4.2H5.15V4.2a1.7,1.7,0,0,1,1.7-1.7H20.23a1.7,1.7,0,0,1,1.7,1.7v5a0.5,0.5,0,0,0,1,0v-5a2.7,2.7,0,0,0-2.7-2.7H6.85a2.7,2.7,0,0,0-2.7,2.7V27.8a2.7,2.7,0,0,0,2.7,2.7H20.23a2.7,2.7,0,0,0,2.7-2.7V22.5A0.5,0.5,0,0,0,22.43,22Zm-2.2,7.5H6.85a1.7,1.7,0,0,1-1.7-1.7V27.7H21.93v0.1A1.7,1.7,0,0,1,20.23,29.5Z"/><path d="M22.43,10.58A5.42,5.42,0,1,0,27.85,16,5.42,5.42,0,0,0,22.43,10.58Zm0,9.83A4.42,4.42,0,1,1,26.85,16,4.42,4.42,0,0,1,22.43,20.42Z"/><path d="M22.93,15.76V12.82a0.5,0.5,0,1,0-1,0V16a0.5,0.5,0,0,0,.19.39l2.22,1.73a0.5,0.5,0,0,0,.31.11A0.5,0.5,0,0,0,25,17.33Z"/><path d="M10.36,3.48a0.5,0.5,0,0,0,0,1h6.36a0.5,0.5,0,0,0,0-1H10.36Z"/></svg>