<svg width="251" height="413" viewBox="0 0 251 413" fill="none" xmlns="http://www.w3.org/2000/svg">
<g opacity="0.2">
<path d="M103.204 384.739C65.5828 396.963 25.0573 396.963 -12.5642 384.739C-50.1857 372.515 -82.9715 348.695 -106.223 316.692C-129.474 284.689 -141.997 246.147 -141.997 206.59C-141.997 167.032 -129.474 128.49 -106.223 96.4874C-82.9716 64.4847 -50.1857 40.6644 -12.5642 28.4404C25.0572 16.2165 65.5828 16.2165 103.204 28.4404C140.826 40.6644 173.612 64.4847 196.863 96.4874C220.114 128.49 232.637 167.032 232.637 206.59" stroke="#297988" stroke-width="4"/>
<path d="M76.2092 61.2679C106.898 67.7911 134.734 83.8622 155.728 107.178C176.721 130.494 189.795 159.857 193.074 191.06C196.354 222.262 189.671 253.702 173.984 280.873C158.297 308.045 134.41 329.552 105.748 342.313C77.0862 355.074 45.12 358.434 14.4311 351.911C-16.2578 345.388 -44.0938 329.317 -65.0875 306.001C-86.0811 282.685 -99.1545 253.322 -102.434 222.119C-105.714 190.916 -99.0308 159.477 -83.3436 132.305" stroke="#297988" stroke-width="4"/>
<path d="M-28.5827 288.667C-45.9157 273.06 -57.8631 252.367 -62.7124 229.553C-67.5617 206.739 -65.0641 182.975 -55.5774 161.667C-46.0907 140.36 -30.102 122.603 -9.9029 110.941C10.2962 99.2787 33.6687 94.3107 56.8649 96.7488C80.0611 99.1868 101.89 108.906 119.223 124.512C136.556 140.119 148.503 160.813 153.353 183.627C158.202 206.441 155.704 230.205 146.218 251.512C136.731 272.82 120.742 290.577 100.543 302.239" stroke="#297988" stroke-width="4"/>
</g>
</svg>
